<svg version="1.2" xmlns="http://www.w3.org/2000/svg" viewBox="0 0 1094 1094" width="1094" height="1094"><style>.a{fill:#fff}</style><path class="a" d="m156.2 90.4h781.6c36.3 0 65.8 29.5 65.8 65.8v781.6c0 36.3-29.5 65.8-65.8 65.8h-390.8c-16.6 0-30-13.4-30-30 0-16.6 13.4-30 30-30h390.8c3.2 0 5.8-2.6 5.8-5.8v-781.6c0-3.2-2.6-5.8-5.8-5.8h-781.6c-3.2 0-5.8 2.6-5.8 5.8v396.1c0 16.6-13.4 30-30 30-16.6 0-30-13.4-30-30v-396.1c0-36.3 29.5-65.8 65.8-65.8z"/><path class="a" d="m130.2 663.4h297.7c5.4 0 9.8 4.4 9.8 9.8v290.6c0 5.4-4.4 9.8-9.8 9.8h-297.7c-5.4 0-9.8-4.4-9.8-9.8v-290.6c0-5.4 4.4-9.8 9.8-9.8z"/><path class="a" d="m751.5 308.5h-154.1c-16.6 0-30-13.4-30-30 0-16.6 13.4-30 30-30h225.3c8.4 0 16 3.5 21.5 9.1q0.1 0.2 0.3 0.3 0.5 0.6 1 1.1 0.2 0.3 0.5 0.5 0.2 0.3 0.5 0.6 0.2 0.4 0.5 0.7 0.2 0.2 0.4 0.5 0.2 0.3 0.5 0.7 0.2 0.2 0.3 0.4 0.3 0.5 0.5 0.9 0.2 0.2 0.3 0.4 0.2 0.4 0.5 0.8 0.1 0.2 0.2 0.5 0.2 0.4 0.4 0.7 0.2 0.3 0.3 0.6 0.2 0.4 0.3 0.7 0.2 0.3 0.3 0.7 0.1 0.3 0.2 0.6 0.2 0.4 0.3 0.8 0.1 0.2 0.2 0.5 0.2 0.4 0.3 0.9 0.1 0.2 0.1 0.5 0.2 0.4 0.3 0.9 0 0.2 0.1 0.5 0.1 0.4 0.2 0.9 0 0.3 0.1 0.5 0.1 0.5 0.2 1 0 0.2 0 0.5 0.1 0.4 0.1 0.9 0.1 0.4 0.1 0.7 0 0.4 0 0.8 0.1 0.7 0.1 1.4v225.3c0 16.6-13.5 30-30 30-16.6 0-30-13.4-30-30v-152.8l-246.6 246.6c-5.9 5.8-13.6 8.8-21.3 8.8-7.6 0-15.3-3-21.2-8.8-11.7-11.7-11.7-30.7 0-42.4z"/></svg>