<svg version="1.2" xmlns="http://www.w3.org/2000/svg" viewBox="0 0 5000 5000" width="5000" height="5000"><style>.a{fill:#fff}</style><path fill-rule="evenodd" class="a" d="m1841.9 4592.2c-100.8 0-195.6-39.2-266.9-110.6l-1056.6-1056.6c-147.3-147.2-147.3-386.7 0-533.9l2372.7-2372.7c71.3-71.4 166.1-110.6 267-110.6 100.8 0 195.6 39.2 266.9 110.6l1056.6 1056.6c147.3 147.2 147.3 386.7 0 533.9l-2372.7 2372.7c-71.3 71.4-166.1 110.6-267 110.6zm1316.2-4006c-53.2 0-103.3 20.7-140.9 58.3l-2372.7 2372.7c-77.6 77.7-77.6 204 0 281.7l1056.6 1056.6c37.6 37.6 87.6 58.3 140.8 58.3 53.2 0 103.3-20.7 140.9-58.3l2372.7-2372.7c77.6-77.7 77.6-204 0-281.7l-1056.6-1056.6c-37.6-37.6-87.6-58.3-140.8-58.3z"/><path class="a" d="m2498.6 532.1l-274.2-156.4c-16.9-9.7-37.9 3-37.2 22.5l3.3 86.9c-242.2-7.5-478.9 31.9-703.9 117.3-220.7 83.8-420.8 208.1-594.7 369.4-173.8 161.3-312.7 351.6-412.8 565.5-103.6 221.5-160.7 458.7-169.9 705.1-0.9 22.1 7.8 42.4 22.3 56.9 13.2 13.2 31.1 21.6 51.2 22.4 42.2 1.5 77.7-31.4 79.3-73.6 34.4-922 812.4-1644 1734.3-1609.8l3.5 92.9c0.7 19.5 22.6 30.6 38.7 19.7l261.7-176.6c15.3-10.3 14.4-33.1-1.6-42.2z"/><path class="a" d="m2501.4 4467.9l274.2 156.4c16.9 9.7 37.9-3 37.2-22.5l-3.3-86.9c242.2 7.5 478.9-31.9 703.9-117.3 220.7-83.8 420.8-208.1 594.7-369.4 173.8-161.3 312.7-351.6 412.8-565.5 103.6-221.5 160.7-458.7 169.9-705.1 0.9-22.1-7.8-42.4-22.3-56.9-13.2-13.2-31.1-21.6-51.2-22.4-42.2-1.5-77.7 31.4-79.3 73.6-34.4 922-812.4 1644-1734.3 1609.8l-3.5-92.9c-0.7-19.5-22.6-30.6-38.7-19.7l-261.7 176.6c-15.3 10.3-14.4 33.1 1.6 42.2z"/></svg>